<svg xmlns="http://www.w3.org/2000/svg" enable-background="new 0 0 48 48" viewBox="0 0 48 48"><rect width="48.083" height="2.828" x="-.042" y="22.586" fill="#90a4ae" transform="rotate(-45.001 24 24)"/><path fill="#455a64" d="M42.275,15.275l-9.549-9.549c-0.953-0.953-2.498-0.953-3.451,0l-0.049,0.049
	c-0.953,0.953-0.953,2.498,0,3.451l9.549,9.549c0.953,0.953,2.498,0.953,3.451,0l0.049-0.049
	C43.228,17.772,43.228,16.228,42.275,15.275z"/><rect width="24.042" height="5.657" x="11.979" y="21.172" fill="#b0bec5" transform="rotate(-45.001 24 24)"/><path fill="#607d8b" d="M36.275,27.275L20.725,11.725c-0.953-0.953-0.953-2.498,0-3.451l2.549-2.549
	c0.953-0.953,2.498-0.953,3.451,0l15.549,15.549c0.953,0.953,0.953,2.498,0,3.451l-2.549,2.549
	C38.772,28.228,37.228,28.228,36.275,27.275z"/><path fill="#455a64" d="M5.725,32.725l9.549,9.549c0.953,0.953,2.498,0.953,3.451,0l0.049-0.049
	c0.953-0.953,0.953-2.498,0-3.451l-9.549-9.549c-0.953-0.953-2.498-0.953-3.451,0l-0.049,0.049
	C4.772,30.228,4.772,31.772,5.725,32.725z"/><path fill="#607d8b" d="M11.725,20.725l15.549,15.549c0.953,0.953,0.953,2.498,0,3.451l-2.549,2.549
	c-0.953,0.953-2.498,0.953-3.451,0L5.725,26.725c-0.953-0.953-0.953-2.498,0-3.451l2.549-2.549
	C9.228,19.772,10.772,19.772,11.725,20.725z"/></svg>