<svg width="505" height="505" viewBox="0 0 505 505" fill="none" xmlns="http://www.w3.org/2000/svg">
<g clip-path="url(#clip0_11_6)">
<path d="M98.6025 54.973C102.738 131.868 169.771 254.74 252.061 254.74C334.351 254.74 401.384 131.86 405.536 54.973H98.6025Z" fill="#C8BCBC"/>
<path d="M140.705 102.235C143.722 149.717 192.37 225.58 252.061 225.58C311.784 225.58 360.416 149.717 363.417 102.235H140.705V102.235Z" fill="#FFAE00"/>
<path d="M433.491 62.275C433.491 64.26 431.876 65.867 429.907 65.867H74.2318C72.2468 65.867 70.6318 64.26 70.6318 62.275V3.6C70.6318 1.599 72.2468 0 74.2318 0H429.907C431.876 0 433.491 1.599 433.491 3.6V62.275Z" fill="#AF7346"/>
<path d="M429.907 0H74.2318C72.2468 0 70.6318 1.599 70.6318 3.6V30.098C70.6318 32.083 72.2468 33.682 74.2318 33.682H429.907C431.876 33.682 433.491 32.083 433.491 30.098V3.6C433.491 1.599 431.876 0 429.907 0Z" fill="#6F4318"/>
<path d="M143.738 120.336H360.401C362.016 114.019 363.063 107.914 363.418 102.235H140.705C141.076 107.914 142.123 114.026 143.738 120.336Z" fill="#FF8500"/>
<path d="M405.536 449.15C401.385 372.255 334.352 249.391 252.062 249.391C169.772 249.391 102.739 372.263 98.6025 449.15H405.536Z" fill="#C8BCBC"/>
<path d="M371.972 442.108C368.727 383.015 316.353 283.246 252.062 283.246C187.771 283.246 135.413 383.015 132.167 442.108H371.972V442.108Z" fill="#FFAE00"/>
<path d="M70.6318 441.856C70.6318 439.863 72.2468 438.256 74.2318 438.256H429.907C431.876 438.256 433.491 439.863 433.491 441.856V500.523C433.491 502.524 431.876 504.123 429.907 504.123H74.2318C72.2468 504.123 70.6318 502.524 70.6318 500.523V441.856Z" fill="#AF7346"/>
<path d="M74.2318 504.123H429.907C431.876 504.123 433.491 502.524 433.491 500.523V474.041C433.491 472.04 431.876 470.441 429.907 470.441H74.2318C72.2468 470.441 70.6318 472.04 70.6318 474.041V500.523C70.6318 502.524 72.2468 504.123 74.2318 504.123Z" fill="#6F4318"/>
<path d="M140.044 401.896H364.087C346.75 346.34 303.199 279.56 252.054 279.56C200.909 279.56 157.381 346.348 140.044 401.896Z" fill="#B0B0B0"/>
<path d="M245.524 411.451C245.524 415.067 248.446 417.989 252.062 417.989C255.677 417.989 258.6 415.067 258.6 411.451V219.396C258.6 215.78 255.678 212.858 252.062 212.858C248.446 212.858 245.524 215.78 245.524 219.396V411.451Z" fill="#FFAE00"/>
</g>
<defs>
<clipPath id="clip0_11_6">
<rect width="504.123" height="504.123" fill="white"/>
</clipPath>
</defs>
</svg>
